<svg width="7" height="12" viewBox="0 0 7 12" fill="none" xmlns="http://www.w3.org/2000/svg">
<g opacity="0.8">
<path fill-rule="evenodd" clip-rule="evenodd" d="M4.9476 6.0009L0.449796 1.46527C0.116891 1.12914 0.116891 0.587019 0.449796 0.250891C0.608422 0.0903187 0.824788 9.26364e-07 1.05046 9.165e-07C1.27613 9.06636e-07 1.4925 0.0903186 1.65113 0.250891L6.74959 5.39281C7.08355 5.72857 7.08355 6.27143 6.74959 6.60719L1.65134 11.7491C1.4925 11.9097 1.27613 12 1.05046 12C0.824789 12 0.608422 11.9097 0.449585 11.7491C0.116892 11.4129 0.116892 10.8708 0.450007 10.5347L4.9476 6.0009Z" fill="white"/>
<path fill-rule="evenodd" clip-rule="evenodd" d="M4.9476 6.0009L0.449796 1.46527C0.116891 1.12914 0.116891 0.587019 0.449796 0.250891C0.608422 0.0903187 0.824788 9.26364e-07 1.05046 9.165e-07C1.27613 9.06636e-07 1.4925 0.0903186 1.65113 0.250891L6.74959 5.39281C7.08355 5.72857 7.08355 6.27143 6.74959 6.60719L1.65134 11.7491C1.4925 11.9097 1.27613 12 1.05046 12C0.824789 12 0.608422 11.9097 0.449585 11.7491C0.116892 11.4129 0.116892 10.8708 0.450007 10.5347L4.9476 6.0009Z" fill="#white"/>
<path fill-rule="evenodd" clip-rule="evenodd" d="M4.9476 6.0009L0.449796 1.46527C0.116891 1.12914 0.116891 0.587019 0.449796 0.250891C0.608422 0.0903187 0.824788 9.26364e-07 1.05046 9.165e-07C1.27613 9.06636e-07 1.4925 0.0903186 1.65113 0.250891L6.74959 5.39281C7.08355 5.72857 7.08355 6.27143 6.74959 6.60719L1.65134 11.7491C1.4925 11.9097 1.27613 12 1.05046 12C0.824789 12 0.608422 11.9097 0.449585 11.7491C0.116892 11.4129 0.116892 10.8708 0.450007 10.5347L4.9476 6.0009Z" fill="white" fill-opacity="0.24" style="mix-blend-mode:overlay"/>
</g>
<defs>
<radialGradient id="paint0_radial_105_2286" cx="0" cy="0" r="1" gradientUnits="userSpaceOnUse" gradientTransform="translate(3.60001 6) scale(3.4 6)">
<stop stop-color="#CC8B8B"/>
<stop offset="1" stop-color="#A33B3B"/>
</radialGradient>
</defs>
</svg>
