<svg width="20" height="21" viewBox="0 0 20 21" fill="none" xmlns="http://www.w3.org/2000/svg">
<path d="M19 5.00001H14V3.33001C13.9765 2.68982 13.7002 2.08506 13.2316 1.6483C12.7629 1.21153 12.1402 0.978398 11.5 1.00001H8.5C7.85975 0.978398 7.23706 1.21153 6.76843 1.6483C6.2998 2.08506 6.02346 2.68982 6 3.33001V5.00001H1C0.734784 5.00001 0.48043 5.10536 0.292893 5.2929C0.105357 5.48043 0 5.73479 0 6.00001C0 6.26522 0.105357 6.51958 0.292893 6.70711C0.48043 6.89465 0.734784 7.00001 1 7.00001H2V18C2 18.7957 2.31607 19.5587 2.87868 20.1213C3.44129 20.6839 4.20435 21 5 21H15C15.7956 21 16.5587 20.6839 17.1213 20.1213C17.6839 19.5587 18 18.7957 18 18V7.00001H19C19.2652 7.00001 19.5196 6.89465 19.7071 6.70711C19.8946 6.51958 20 6.26522 20 6.00001C20 5.73479 19.8946 5.48043 19.7071 5.2929C19.5196 5.10536 19.2652 5.00001 19 5.00001ZM8 3.33001C8 3.17001 8.21 3.00001 8.5 3.00001H11.5C11.79 3.00001 12 3.17001 12 3.33001V5.00001H8V3.33001ZM16 18C16 18.2652 15.8946 18.5196 15.7071 18.7071C15.5196 18.8946 15.2652 19 15 19H5C4.73478 19 4.48043 18.8946 4.29289 18.7071C4.10536 18.5196 4 18.2652 4 18V7.00001H16V18Z" fill="white"/>
</svg>
