<svg width="89" height="24" viewBox="0 0 89 24" fill="none" xmlns="http://www.w3.org/2000/svg">
<g clip-path="url(#clip0_306_5070)">
<path d="M7 6C7.26522 6 7.51957 5.89464 7.70711 5.70711C7.89464 5.51957 8 5.26522 8 5C8 4.73478 7.89464 4.48043 7.70711 4.29289C7.51957 4.10536 7.26522 4 7 4H5C4.73478 4 4.48043 4.10536 4.29289 4.29289C4.10536 4.48043 4 4.73478 4 5V19C4 19.2652 4.10536 19.5196 4.29289 19.7071C4.48043 19.8946 4.73478 20 5 20H7C7.26522 20 7.51957 19.8946 7.70711 19.7071C7.89464 19.5196 8 19.2652 8 19C8 18.7348 7.89464 18.4804 7.70711 18.2929C7.51957 18.1054 7.26522 18 7 18H6V6H7Z" fill="white"/>
<path d="M20.82 11.42L18 7.42C17.8471 7.20441 17.615 7.05814 17.3545 7.01317C17.0941 6.9682 16.8264 7.02818 16.61 7.18C16.5018 7.25579 16.4098 7.35224 16.3391 7.46381C16.2684 7.57537 16.2206 7.69982 16.1982 7.82999C16.1759 7.96015 16.1796 8.09344 16.2091 8.22217C16.2386 8.3509 16.2933 8.47252 16.37 8.58L18.09 11H10C9.73478 11 9.48043 11.1054 9.29289 11.2929C9.10536 11.4804 9 11.7348 9 12C9 12.2652 9.10536 12.5196 9.29289 12.7071C9.48043 12.8946 9.73478 13 10 13H18L16.2 15.4C16.1212 15.5051 16.0639 15.6246 16.0313 15.7518C15.9987 15.879 15.9915 16.0114 16.01 16.1414C16.0286 16.2714 16.0726 16.3965 16.1395 16.5095C16.2064 16.6225 16.2949 16.7212 16.4 16.8C16.5731 16.9298 16.7836 17 17 17C17.1552 17 17.3084 16.9639 17.4472 16.8944C17.5861 16.825 17.7069 16.7242 17.8 16.6L20.8 12.6C20.9281 12.4309 20.999 12.2254 21.0026 12.0133C21.0062 11.8011 20.9423 11.5934 20.82 11.42Z" fill="white"/>
</g>
<path d="M37.1294 17V6.81818H38.6656V15.6776H43.2792V17H37.1294ZM48.129 17.1541C47.4131 17.1541 46.7883 16.9901 46.2547 16.6619C45.7211 16.3338 45.3068 15.8748 45.0118 15.2848C44.7168 14.6948 44.5693 14.0054 44.5693 13.2166C44.5693 12.4245 44.7168 11.7318 45.0118 11.1385C45.3068 10.5452 45.7211 10.0845 46.2547 9.75639C46.7883 9.42827 47.4131 9.2642 48.129 9.2642C48.8449 9.2642 49.4697 9.42827 50.0033 9.75639C50.5369 10.0845 50.9512 10.5452 51.2462 11.1385C51.5412 11.7318 51.6887 12.4245 51.6887 13.2166C51.6887 14.0054 51.5412 14.6948 51.2462 15.2848C50.9512 15.8748 50.5369 16.3338 50.0033 16.6619C49.4697 16.9901 48.8449 17.1541 48.129 17.1541ZM48.134 15.9062C48.598 15.9062 48.9825 15.7836 49.2874 15.5384C49.5923 15.2931 49.8177 14.9666 49.9635 14.5589C50.1127 14.1513 50.1872 13.7022 50.1872 13.2116C50.1872 12.7244 50.1127 12.277 49.9635 11.8693C49.8177 11.4583 49.5923 11.1286 49.2874 10.88C48.9825 10.6314 48.598 10.5071 48.134 10.5071C47.6666 10.5071 47.2789 10.6314 46.9706 10.88C46.6657 11.1286 46.4387 11.4583 46.2895 11.8693C46.1437 12.277 46.0708 12.7244 46.0708 13.2116C46.0708 13.7022 46.1437 14.1513 46.2895 14.5589C46.4387 14.9666 46.6657 15.2931 46.9706 15.5384C47.2789 15.7836 47.6666 15.9062 48.134 15.9062ZM56.5496 20.0227C55.9431 20.0227 55.4211 19.9432 54.9836 19.7841C54.5494 19.625 54.1948 19.4145 53.9197 19.1527C53.6446 18.8909 53.4391 18.6042 53.3032 18.2926L54.5809 17.7656C54.6704 17.9115 54.7897 18.0656 54.9388 18.228C55.0913 18.3937 55.2968 18.5346 55.5553 18.6506C55.8171 18.7666 56.1536 18.8246 56.5645 18.8246C57.128 18.8246 57.5937 18.687 57.9616 18.4119C58.3295 18.1402 58.5134 17.706 58.5134 17.1094V15.608H58.4189C58.3295 15.7704 58.2002 15.951 58.0312 16.1499C57.8654 16.3487 57.6367 16.5211 57.3451 16.6669C57.0534 16.8127 56.6739 16.8857 56.2066 16.8857C55.6034 16.8857 55.0598 16.7448 54.5759 16.4631C54.0953 16.178 53.7142 15.7588 53.4324 15.2053C53.154 14.6484 53.0148 13.964 53.0148 13.152C53.0148 12.34 53.1524 11.6439 53.4275 11.0639C53.7059 10.4839 54.087 10.0398 54.5709 9.73153C55.0548 9.41998 55.6034 9.2642 56.2165 9.2642C56.6905 9.2642 57.0733 9.34375 57.365 9.50284C57.6566 9.65862 57.8837 9.84091 58.0461 10.0497C58.2118 10.2585 58.3394 10.4425 58.4289 10.6016H58.5383V9.36364H59.9949V17.169C59.9949 17.8253 59.8425 18.3639 59.5376 18.7848C59.2326 19.2057 58.82 19.5173 58.2996 19.7195C57.7826 19.9216 57.1992 20.0227 56.5496 20.0227ZM56.5347 15.6527C56.9623 15.6527 57.3235 15.5533 57.6185 15.3544C57.9168 15.1522 58.1422 14.8639 58.2947 14.4893C58.4504 14.1115 58.5283 13.6591 58.5283 13.1321C58.5283 12.6184 58.4521 12.166 58.2996 11.7749C58.1472 11.3838 57.9234 11.0788 57.6285 10.8601C57.3335 10.638 56.9689 10.527 56.5347 10.527C56.0873 10.527 55.7144 10.643 55.4161 10.875C55.1178 11.1037 54.8924 11.4152 54.74 11.8097C54.5908 12.2041 54.5162 12.6449 54.5162 13.1321C54.5162 13.6326 54.5925 14.0717 54.7449 14.4496C54.8974 14.8274 55.1228 15.1224 55.4211 15.3345C55.7227 15.5466 56.0939 15.6527 56.5347 15.6527ZM74.6574 11.9091C74.6574 12.9962 74.4585 13.9309 74.0608 14.7131C73.6631 15.492 73.1179 16.0919 72.4252 16.5128C71.7358 16.9304 70.9519 17.1392 70.0736 17.1392C69.192 17.1392 68.4048 16.9304 67.7121 16.5128C67.0227 16.0919 66.4791 15.4903 66.0814 14.7081C65.6837 13.9259 65.4848 12.9929 65.4848 11.9091C65.4848 10.822 65.6837 9.88897 66.0814 9.11008C66.4791 8.32789 67.0227 7.72798 67.7121 7.31037C68.4048 6.88944 69.192 6.67898 70.0736 6.67898C70.9519 6.67898 71.7358 6.88944 72.4252 7.31037C73.1179 7.72798 73.6631 8.32789 74.0608 9.11008C74.4585 9.88897 74.6574 10.822 74.6574 11.9091ZM73.1361 11.9091C73.1361 11.0805 73.0019 10.3828 72.7334 9.81605C72.4682 9.24598 72.1037 8.8151 71.6396 8.52344C71.1789 8.22846 70.6569 8.08097 70.0736 8.08097C69.4869 8.08097 68.9633 8.22846 68.5026 8.52344C68.0419 8.8151 67.6773 9.24598 67.4088 9.81605C67.1437 10.3828 67.0111 11.0805 67.0111 11.9091C67.0111 12.7377 67.1437 13.437 67.4088 14.0071C67.6773 14.5739 68.0419 15.0047 68.5026 15.2997C68.9633 15.5914 69.4869 15.7372 70.0736 15.7372C70.6569 15.7372 71.1789 15.5914 71.6396 15.2997C72.1037 15.0047 72.4682 14.5739 72.7334 14.0071C73.0019 13.437 73.1361 12.7377 73.1361 11.9091ZM81.2907 13.8331V9.36364H82.7822V17H81.3206V15.6776H81.241C81.0654 16.0852 80.7836 16.425 80.3959 16.6967C80.0114 16.9652 79.5325 17.0994 78.9591 17.0994C78.4685 17.0994 78.0344 16.9917 77.6565 16.7763C77.282 16.5575 76.987 16.2344 76.7716 15.8068C76.5595 15.3793 76.4534 14.8506 76.4534 14.2209V9.36364H77.9399V14.0419C77.9399 14.5623 78.0841 14.9766 78.3724 15.2848C78.6608 15.593 79.0353 15.7472 79.496 15.7472C79.7744 15.7472 80.0512 15.6776 80.3263 15.5384C80.6047 15.3991 80.835 15.1887 81.0173 14.907C81.2029 14.6252 81.2941 14.2673 81.2907 13.8331ZM88.3442 9.36364V10.5568H84.173V9.36364H88.3442ZM85.2916 7.53409H86.7781V14.7578C86.7781 15.0462 86.8212 15.2633 86.9074 15.4091C86.9936 15.5516 87.1046 15.6494 87.2405 15.7024C87.3797 15.7521 87.5305 15.777 87.6929 15.777C87.8122 15.777 87.9166 15.7687 88.0061 15.7521C88.0956 15.7356 88.1652 15.7223 88.2149 15.7124L88.4834 16.9403C88.3972 16.9735 88.2746 17.0066 88.1155 17.0398C87.9564 17.0762 87.7575 17.0961 87.5189 17.0994C87.1278 17.1061 86.7632 17.0365 86.4252 16.8906C86.0871 16.7448 85.8137 16.5194 85.6048 16.2145C85.396 15.9096 85.2916 15.5268 85.2916 15.0661V7.53409Z" fill="white"/>
<defs>
<clipPath id="clip0_306_5070">
<rect width="24" height="24" fill="white"/>
</clipPath>
</defs>
</svg>
